<mxfile host="app.diagrams.net" agent="Mozilla/5.0 (Windows NT 10.0; Win64; x64) AppleWebKit/537.36 (KHTML, like Gecko) Chrome/131.0.0.0 Safari/537.36" version="26.0.5" pages="2">
  <diagram name="Page-1" id="03018318-947c-dd8e-b7a3-06fadd420f32">
    <mxGraphModel dx="3354" dy="1258" grid="1" gridSize="10" guides="1" tooltips="1" connect="1" arrows="1" fold="1" page="1" pageScale="1" pageWidth="1100" pageHeight="850" background="none" math="0" shadow="0">
      <root>
        <mxCell id="0" />
        <mxCell id="1" parent="0" />
        <mxCell id="677b7b8949515195-1" value="" style="whiteSpace=wrap;html=1;rounded=0;shadow=0;labelBackgroundColor=none;strokeColor=#000000;strokeWidth=1;fillColor=none;fontFamily=Verdana;fontSize=12;fontColor=#000000;align=center;comic=1;" parent="1" vertex="1">
          <mxGeometry x="20" y="50" width="1060" height="530" as="geometry" />
        </mxCell>
        <mxCell id="gBdz1FRmPUKY2ZFgMoxz-1" value="&lt;font style=&quot;font-size: 18px;&quot;&gt;fourthwallacademy.com/Sections/Details/10&lt;/font&gt;" style="html=1;strokeWidth=1;shadow=0;dashed=0;shape=mxgraph.ios7ui.url;fillColor=#e0e0e0;strokeColor=#c0c0c0;buttonText=;strokeColor2=#222222;fontColor=#222222;fontSize=8;spacingTop=2;align=center;whiteSpace=wrap;" parent="1" vertex="1">
          <mxGeometry x="25" y="10" width="1050" height="32.5" as="geometry" />
        </mxCell>
        <mxCell id="CBU3p2uWpCq7XRt16fgI-3" value="&lt;font style=&quot;font-size: 16px;&quot;&gt;Course: Geometry&lt;/font&gt;" style="text;html=1;align=right;verticalAlign=middle;whiteSpace=wrap;rounded=0;" parent="1" vertex="1">
          <mxGeometry x="94" y="120" width="150" height="30" as="geometry" />
        </mxCell>
        <mxCell id="CBU3p2uWpCq7XRt16fgI-11" value="&lt;font style=&quot;font-size: 16px;&quot;&gt;Edit&lt;/font&gt;" style="rounded=1;fillColor=#0057D8;strokeColor=none;html=1;whiteSpace=wrap;fontColor=#ffffff;align=center;verticalAlign=middle;fontStyle=0;fontSize=12;sketch=0;" parent="1" vertex="1">
          <mxGeometry x="104" y="298.5" width="86" height="33" as="geometry" />
        </mxCell>
        <mxCell id="CBU3p2uWpCq7XRt16fgI-12" value="Go Back" style="html=1;shadow=0;dashed=0;shape=mxgraph.bootstrap.rrect;rSize=5;strokeColor=none;strokeWidth=1;fillColor=none;fontColor=#0085FC;whiteSpace=wrap;align=center;verticalAlign=middle;spacingLeft=0;fontStyle=0;fontSize=16;spacing=5;" parent="1" vertex="1">
          <mxGeometry x="204" y="295" width="100" height="40" as="geometry" />
        </mxCell>
        <mxCell id="CBU3p2uWpCq7XRt16fgI-16" value="Section Details" style="text;strokeColor=none;fillColor=none;html=1;fontSize=24;fontStyle=1;verticalAlign=middle;align=center;" parent="1" vertex="1">
          <mxGeometry x="445" y="60" width="210" height="40" as="geometry" />
        </mxCell>
        <mxCell id="CBU3p2uWpCq7XRt16fgI-17" value="&lt;font style=&quot;font-size: 16px;&quot;&gt;Delete&lt;/font&gt;" style="rounded=1;fillColor=#f8cecc;strokeColor=#b85450;html=1;whiteSpace=wrap;align=center;verticalAlign=middle;fontStyle=0;fontSize=12;sketch=0;" parent="1" vertex="1">
          <mxGeometry x="911" y="298.5" width="86" height="33" as="geometry" />
        </mxCell>
        <mxCell id="8BGb5dk_agc61EFe4xYI-1" value="&lt;font style=&quot;font-size: 16px;&quot;&gt;Instructor: Titanium Templar&lt;/font&gt;" style="text;html=1;align=right;verticalAlign=middle;whiteSpace=wrap;rounded=0;" parent="1" vertex="1">
          <mxGeometry x="90" y="150" width="220" height="30" as="geometry" />
        </mxCell>
        <mxCell id="8BGb5dk_agc61EFe4xYI-2" value="&lt;font style=&quot;font-size: 16px;&quot;&gt;Start Date:&amp;nbsp; 01-01-2023&lt;/font&gt;" style="text;html=1;align=right;verticalAlign=middle;whiteSpace=wrap;rounded=0;" parent="1" vertex="1">
          <mxGeometry x="99" y="210" width="180" height="30" as="geometry" />
        </mxCell>
        <mxCell id="8BGb5dk_agc61EFe4xYI-3" value="&lt;font style=&quot;font-size: 16px;&quot;&gt;End Date:&amp;nbsp; 31-03-2023&lt;/font&gt;" style="text;html=1;align=right;verticalAlign=middle;whiteSpace=wrap;rounded=0;" parent="1" vertex="1">
          <mxGeometry x="94" y="240" width="180" height="30" as="geometry" />
        </mxCell>
        <mxCell id="8BGb5dk_agc61EFe4xYI-4" value="&lt;font style=&quot;font-size: 16px;&quot;&gt;Start Time:&amp;nbsp; 10:00&lt;/font&gt;" style="text;html=1;align=right;verticalAlign=middle;whiteSpace=wrap;rounded=0;" parent="1" vertex="1">
          <mxGeometry x="340" y="210" width="140" height="30" as="geometry" />
        </mxCell>
        <mxCell id="8BGb5dk_agc61EFe4xYI-5" value="&lt;font style=&quot;font-size: 16px;&quot;&gt;End Time:&amp;nbsp; 10:45&lt;/font&gt;" style="text;html=1;align=right;verticalAlign=middle;whiteSpace=wrap;rounded=0;" parent="1" vertex="1">
          <mxGeometry x="340" y="240" width="140" height="30" as="geometry" />
        </mxCell>
        <mxCell id="PrH8R2ojVTRyC5sa_m7O-1" value="" style="shape=table;startSize=0;container=1;collapsible=0;childLayout=tableLayout;strokeColor=default;fontSize=16;fontStyle=1" parent="1" vertex="1">
          <mxGeometry x="20" y="440" width="1060" height="134" as="geometry" />
        </mxCell>
        <mxCell id="PrH8R2ojVTRyC5sa_m7O-2" value="" style="shape=tableRow;horizontal=0;startSize=0;swimlaneHead=0;swimlaneBody=0;strokeColor=inherit;top=0;left=0;bottom=0;right=0;collapsible=0;dropTarget=0;fillColor=none;points=[[0,0.5],[1,0.5]];portConstraint=eastwest;fontSize=16;" parent="PrH8R2ojVTRyC5sa_m7O-1" vertex="1">
          <mxGeometry width="1060" height="34" as="geometry" />
        </mxCell>
        <mxCell id="PrH8R2ojVTRyC5sa_m7O-3" value="&lt;b&gt;Alias&lt;/b&gt;" style="shape=partialRectangle;html=1;whiteSpace=wrap;connectable=0;overflow=hidden;top=0;left=0;bottom=0;right=0;pointerEvents=1;fontSize=16;fillColor=#dae8fc;strokeColor=#6c8ebf;align=left;" parent="PrH8R2ojVTRyC5sa_m7O-2" vertex="1">
          <mxGeometry width="265" height="34" as="geometry">
            <mxRectangle width="265" height="34" as="alternateBounds" />
          </mxGeometry>
        </mxCell>
        <mxCell id="PrH8R2ojVTRyC5sa_m7O-4" value="&lt;b&gt;Grade&lt;/b&gt;" style="shape=partialRectangle;html=1;whiteSpace=wrap;connectable=0;overflow=hidden;top=0;left=0;bottom=0;right=0;pointerEvents=1;fontSize=16;fillColor=#dae8fc;strokeColor=#6c8ebf;align=left;" parent="PrH8R2ojVTRyC5sa_m7O-2" vertex="1">
          <mxGeometry x="265" width="264" height="34" as="geometry">
            <mxRectangle width="264" height="34" as="alternateBounds" />
          </mxGeometry>
        </mxCell>
        <mxCell id="PrH8R2ojVTRyC5sa_m7O-5" value="&lt;b&gt;Absences&lt;/b&gt;" style="shape=partialRectangle;html=1;whiteSpace=wrap;connectable=0;overflow=hidden;top=0;left=0;bottom=0;right=0;pointerEvents=1;fontSize=16;fillColor=#dae8fc;strokeColor=#6c8ebf;align=left;" parent="PrH8R2ojVTRyC5sa_m7O-2" vertex="1">
          <mxGeometry x="529" width="266" height="34" as="geometry">
            <mxRectangle width="266" height="34" as="alternateBounds" />
          </mxGeometry>
        </mxCell>
        <mxCell id="PrH8R2ojVTRyC5sa_m7O-14" style="shape=partialRectangle;html=1;whiteSpace=wrap;connectable=0;overflow=hidden;top=0;left=0;bottom=0;right=0;pointerEvents=1;fontSize=16;fillColor=#dae8fc;strokeColor=#6c8ebf;align=left;" parent="PrH8R2ojVTRyC5sa_m7O-2" vertex="1">
          <mxGeometry x="795" width="265" height="34" as="geometry">
            <mxRectangle width="265" height="34" as="alternateBounds" />
          </mxGeometry>
        </mxCell>
        <mxCell id="PrH8R2ojVTRyC5sa_m7O-6" value="" style="shape=tableRow;horizontal=0;startSize=0;swimlaneHead=0;swimlaneBody=0;strokeColor=inherit;top=0;left=0;bottom=0;right=0;collapsible=0;dropTarget=0;fillColor=none;points=[[0,0.5],[1,0.5]];portConstraint=eastwest;fontSize=16;" parent="PrH8R2ojVTRyC5sa_m7O-1" vertex="1">
          <mxGeometry y="34" width="1060" height="32" as="geometry" />
        </mxCell>
        <mxCell id="PrH8R2ojVTRyC5sa_m7O-7" value="Blur" style="shape=partialRectangle;html=1;whiteSpace=wrap;connectable=0;overflow=hidden;top=0;left=0;bottom=0;right=0;pointerEvents=1;fontSize=16;align=left;" parent="PrH8R2ojVTRyC5sa_m7O-6" vertex="1">
          <mxGeometry width="265" height="32" as="geometry">
            <mxRectangle width="265" height="32" as="alternateBounds" />
          </mxGeometry>
        </mxCell>
        <mxCell id="PrH8R2ojVTRyC5sa_m7O-8" value="93" style="shape=partialRectangle;html=1;whiteSpace=wrap;connectable=0;overflow=hidden;top=0;left=0;bottom=0;right=0;pointerEvents=1;fontSize=16;align=left;" parent="PrH8R2ojVTRyC5sa_m7O-6" vertex="1">
          <mxGeometry x="265" width="264" height="32" as="geometry">
            <mxRectangle width="264" height="32" as="alternateBounds" />
          </mxGeometry>
        </mxCell>
        <mxCell id="PrH8R2ojVTRyC5sa_m7O-9" value="0" style="shape=partialRectangle;html=1;whiteSpace=wrap;connectable=0;overflow=hidden;top=0;left=0;bottom=0;right=0;pointerEvents=1;fontSize=16;align=left;" parent="PrH8R2ojVTRyC5sa_m7O-6" vertex="1">
          <mxGeometry x="529" width="266" height="32" as="geometry">
            <mxRectangle width="266" height="32" as="alternateBounds" />
          </mxGeometry>
        </mxCell>
        <mxCell id="PrH8R2ojVTRyC5sa_m7O-15" value="&lt;font color=&quot;#ff6666&quot;&gt;Remove&lt;/font&gt;" style="shape=partialRectangle;html=1;whiteSpace=wrap;connectable=0;overflow=hidden;top=0;left=0;bottom=0;right=0;pointerEvents=1;fontSize=16;align=left;" parent="PrH8R2ojVTRyC5sa_m7O-6" vertex="1">
          <mxGeometry x="795" width="265" height="32" as="geometry">
            <mxRectangle width="265" height="32" as="alternateBounds" />
          </mxGeometry>
        </mxCell>
        <mxCell id="PrH8R2ojVTRyC5sa_m7O-10" value="" style="shape=tableRow;horizontal=0;startSize=0;swimlaneHead=0;swimlaneBody=0;strokeColor=inherit;top=0;left=0;bottom=0;right=0;collapsible=0;dropTarget=0;fillColor=none;points=[[0,0.5],[1,0.5]];portConstraint=eastwest;fontSize=16;" parent="PrH8R2ojVTRyC5sa_m7O-1" vertex="1">
          <mxGeometry y="66" width="1060" height="34" as="geometry" />
        </mxCell>
        <mxCell id="PrH8R2ojVTRyC5sa_m7O-11" value="Aurora" style="shape=partialRectangle;html=1;whiteSpace=wrap;connectable=0;overflow=hidden;top=0;left=0;bottom=0;right=0;pointerEvents=1;fontSize=16;fillColor=#f5f5f5;fontColor=#333333;strokeColor=#666666;align=left;" parent="PrH8R2ojVTRyC5sa_m7O-10" vertex="1">
          <mxGeometry width="265" height="34" as="geometry">
            <mxRectangle width="265" height="34" as="alternateBounds" />
          </mxGeometry>
        </mxCell>
        <mxCell id="PrH8R2ojVTRyC5sa_m7O-12" value="81" style="shape=partialRectangle;html=1;whiteSpace=wrap;connectable=0;overflow=hidden;top=0;left=0;bottom=0;right=0;pointerEvents=1;fontSize=16;fillColor=#f5f5f5;fontColor=#333333;strokeColor=#666666;align=left;" parent="PrH8R2ojVTRyC5sa_m7O-10" vertex="1">
          <mxGeometry x="265" width="264" height="34" as="geometry">
            <mxRectangle width="264" height="34" as="alternateBounds" />
          </mxGeometry>
        </mxCell>
        <mxCell id="PrH8R2ojVTRyC5sa_m7O-13" value="0" style="shape=partialRectangle;html=1;whiteSpace=wrap;connectable=0;overflow=hidden;top=0;left=0;bottom=0;right=0;pointerEvents=1;fontSize=16;fillColor=#f5f5f5;fontColor=#333333;strokeColor=#666666;align=left;" parent="PrH8R2ojVTRyC5sa_m7O-10" vertex="1">
          <mxGeometry x="529" width="266" height="34" as="geometry">
            <mxRectangle width="266" height="34" as="alternateBounds" />
          </mxGeometry>
        </mxCell>
        <mxCell id="PrH8R2ojVTRyC5sa_m7O-16" value="&lt;font color=&quot;#ff6666&quot;&gt;Remove&lt;/font&gt;" style="shape=partialRectangle;html=1;whiteSpace=wrap;connectable=0;overflow=hidden;top=0;left=0;bottom=0;right=0;pointerEvents=1;fontSize=16;fillColor=#f5f5f5;fontColor=#333333;strokeColor=#666666;align=left;" parent="PrH8R2ojVTRyC5sa_m7O-10" vertex="1">
          <mxGeometry x="795" width="265" height="34" as="geometry">
            <mxRectangle width="265" height="34" as="alternateBounds" />
          </mxGeometry>
        </mxCell>
        <mxCell id="PrH8R2ojVTRyC5sa_m7O-20" style="shape=tableRow;horizontal=0;startSize=0;swimlaneHead=0;swimlaneBody=0;strokeColor=inherit;top=0;left=0;bottom=0;right=0;collapsible=0;dropTarget=0;fillColor=none;points=[[0,0.5],[1,0.5]];portConstraint=eastwest;fontSize=16;" parent="PrH8R2ojVTRyC5sa_m7O-1" vertex="1">
          <mxGeometry y="100" width="1060" height="34" as="geometry" />
        </mxCell>
        <mxCell id="PrH8R2ojVTRyC5sa_m7O-21" value="Blaze" style="shape=partialRectangle;html=1;whiteSpace=wrap;connectable=0;overflow=hidden;top=0;left=0;bottom=0;right=0;pointerEvents=1;fontSize=16;align=left;" parent="PrH8R2ojVTRyC5sa_m7O-20" vertex="1">
          <mxGeometry width="265" height="34" as="geometry">
            <mxRectangle width="265" height="34" as="alternateBounds" />
          </mxGeometry>
        </mxCell>
        <mxCell id="PrH8R2ojVTRyC5sa_m7O-22" value="89" style="shape=partialRectangle;html=1;whiteSpace=wrap;connectable=0;overflow=hidden;top=0;left=0;bottom=0;right=0;pointerEvents=1;fontSize=16;align=left;" parent="PrH8R2ojVTRyC5sa_m7O-20" vertex="1">
          <mxGeometry x="265" width="264" height="34" as="geometry">
            <mxRectangle width="264" height="34" as="alternateBounds" />
          </mxGeometry>
        </mxCell>
        <mxCell id="PrH8R2ojVTRyC5sa_m7O-23" value="0" style="shape=partialRectangle;html=1;whiteSpace=wrap;connectable=0;overflow=hidden;top=0;left=0;bottom=0;right=0;pointerEvents=1;fontSize=16;align=left;" parent="PrH8R2ojVTRyC5sa_m7O-20" vertex="1">
          <mxGeometry x="529" width="266" height="34" as="geometry">
            <mxRectangle width="266" height="34" as="alternateBounds" />
          </mxGeometry>
        </mxCell>
        <mxCell id="PrH8R2ojVTRyC5sa_m7O-24" value="&lt;font color=&quot;#ff6666&quot;&gt;Remove&lt;/font&gt;" style="shape=partialRectangle;html=1;whiteSpace=wrap;connectable=0;overflow=hidden;top=0;left=0;bottom=0;right=0;pointerEvents=1;fontSize=16;align=left;" parent="PrH8R2ojVTRyC5sa_m7O-20" vertex="1">
          <mxGeometry x="795" width="265" height="34" as="geometry">
            <mxRectangle width="265" height="34" as="alternateBounds" />
          </mxGeometry>
        </mxCell>
        <mxCell id="PrH8R2ojVTRyC5sa_m7O-25" value="&lt;font style=&quot;font-size: 20px;&quot;&gt;Enrolled Students&lt;/font&gt;" style="text;strokeColor=none;fillColor=none;html=1;fontSize=24;fontStyle=1;verticalAlign=middle;align=center;" parent="1" vertex="1">
          <mxGeometry x="25" y="390" width="210" height="40" as="geometry" />
        </mxCell>
        <mxCell id="PrH8R2ojVTRyC5sa_m7O-26" value="Enroll Student" style="html=1;shadow=0;dashed=0;shape=mxgraph.bootstrap.rrect;rSize=5;strokeColor=none;strokeWidth=1;fillColor=none;fontColor=#0085FC;whiteSpace=wrap;align=center;verticalAlign=middle;spacingLeft=0;fontStyle=0;fontSize=16;spacing=5;" parent="1" vertex="1">
          <mxGeometry x="220" y="390" width="146" height="40" as="geometry" />
        </mxCell>
      </root>
    </mxGraphModel>
  </diagram>
  <diagram id="c-LDKFhOnjvrz9_vMBn8" name="Seite-2">
    <mxGraphModel dx="3354" dy="1258" grid="1" gridSize="10" guides="1" tooltips="1" connect="1" arrows="1" fold="1" page="1" pageScale="1" pageWidth="827" pageHeight="1169" math="0" shadow="0">
      <root>
        <mxCell id="0" />
        <mxCell id="1" parent="0" />
      </root>
    </mxGraphModel>
  </diagram>
</mxfile>
